<?xml version="1.0" standalone="no"?>
<!DOCTYPE svg PUBLIC "-//W3C//DTD SVG 20010904//EN"
 "http://www.w3.org/TR/2001/REC-SVG-20010904/DTD/svg10.dtd">
<svg version="1.0" xmlns="http://www.w3.org/2000/svg"
 width="1063.000000pt" height="1063.000000pt" viewBox="0 0 1063.000000 1063.000000"
 preserveAspectRatio="xMidYMid meet">
<metadata>
Created by potrace 1.11, written by Peter Selinger 2001-2013
</metadata>
<g transform="translate(0.000000,1063.000000) scale(0.100000,-0.100000)"
fill="#000000" stroke="none">
<path d="M5038 10625 c-2 -1 -49 -6 -105 -9 -101 -7 -140 -11 -218 -21 -22 -2
-62 -7 -90 -10 -27 -4 -88 -13 -135 -20 -47 -8 -103 -17 -125 -20 -55 -9 -333
-71 -425 -96 -547 -148 -969 -335 -1514 -672 -136 -84 -457 -326 -626 -473
-168 -146 -515 -514 -669 -710 -288 -365 -591 -890 -738 -1274 -13 -36 -31
-78 -38 -95 -8 -16 -20 -50 -29 -75 -8 -25 -28 -83 -45 -130 -49 -140 -129
-423 -144 -510 -3 -14 -10 -44 -16 -68 -7 -24 -14 -56 -16 -72 -2 -16 -6 -37
-9 -47 -3 -10 -7 -34 -10 -53 -3 -19 -8 -46 -10 -60 -3 -14 -7 -43 -11 -65 -3
-22 -10 -67 -15 -100 -12 -80 -24 -194 -37 -365 -15 -183 -6 -809 12 -880 2
-8 6 -44 10 -80 3 -36 7 -76 9 -90 3 -14 7 -45 10 -70 7 -52 16 -107 33 -200
149 -835 539 -1694 1067 -2350 166 -207 433 -491 616 -656 218 -196 533 -428
806 -592 97 -58 128 -76 289 -163 97 -53 337 -162 480 -219 106 -42 366 -134
413 -146 9 -2 91 -24 182 -49 148 -41 387 -94 495 -109 23 -4 50 -8 60 -10 44
-8 142 -21 238 -31 34 -3 73 -8 87 -10 133 -19 630 -26 840 -11 172 12 185 13
335 32 47 6 269 41 305 49 14 3 41 8 60 11 19 3 100 22 179 40 715 169 1380
480 1966 921 130 98 139 105 292 236 113 96 354 331 453 442 115 128 108 120
280 335 101 126 348 497 393 590 4 8 25 47 47 85 93 164 308 630 300 653 0 1
6 15 14 30 27 53 134 390 174 547 40 157 86 372 96 450 3 22 7 49 10 60 2 11
7 45 11 75 4 30 9 62 10 70 1 8 6 46 10 83 3 37 8 76 10 85 25 131 25 800 0
1002 -2 19 -7 62 -10 95 -3 33 -8 71 -10 85 -2 14 -6 48 -10 75 -16 129 -70
397 -115 569 -161 629 -418 1189 -794 1731 -50 72 -98 139 -107 150 -9 11 -54
67 -101 125 -152 191 -190 233 -393 435 -172 172 -202 200 -310 290 -33 28
-69 58 -80 68 -58 52 -353 267 -460 335 -44 28 -85 56 -92 62 -7 5 -14 10 -17
10 -2 0 -34 18 -70 40 -221 134 -583 310 -826 401 -234 87 -646 209 -785 232
-16 3 -66 12 -110 21 -44 8 -93 18 -110 20 -101 17 -175 28 -215 32 -25 3 -58
7 -75 9 -16 2 -59 6 -95 10 -36 3 -83 8 -105 11 -44 5 -672 14 -677 9z"/>
</g>
</svg>
